<svg xmlns="http://www.w3.org/2000/svg" width="1024" height="500" viewBox="0 0 1024 500"><title>BillNex asset</title><g id="background"></g><g id="artwork" stroke-linecap="round" stroke-linejoin="round"><rect width="1024" height="500" fill="#146CFF"/><circle cx="884" cy="72" r="200" fill="#0055D1"/><text x="72" y="144" font-family="Inter,Arial" font-size="72" font-weight="700" fill="#fff">Bill. Track. Grow.</text><text x="72" y="208" font-family="Inter,Arial" font-size="28" fill="#fff">Billing made simple for every Indian business</text><g transform="translate(620 0) scale(.82)"><path d="M184 118h178v254l-34 34H184z" fill="#0055D1" opacity=".38" transform="translate(22 22)"/><path d="M166 104h180v274l-18-12-18 12-18-12-18 12-18-12-18 12-18-12-18 12-18-12-18 12V104z" fill="#FFFFFF"/>
    <path d="M208 164h96M208 204h72" stroke="#0055D1" stroke-width="16"/>
    <text x="208" y="284" font-family="Inter,Arial,sans-serif" font-size="72" font-weight="700" fill="#0055D1">₹</text>
    <circle cx="312" cy="306" r="52" fill="#12B76A"/><path d="m286 306 18 18 34-38" fill="none" stroke="#FFFFFF" stroke-width="14"/></g><rect x="72" y="280" width="320" height="88" rx="16" fill="#fff"/><text x="232" y="336" text-anchor="middle" font-family="Inter,Arial" font-size="28" font-weight="700" fill="#111C2D">Fast • GST-ready • Secure</text></g></svg>